<svg xmlns="http://www.w3.org/2000/svg" viewBox="0 14 22 37.5" data-asc="1.02" width="22" height="37.5"><defs/><g fill="#000000"><g transform="translate(0, 0)"><path d="M11 51.50Q7.65 51.50 5.18 50.17Q2.70 48.85 1.35 46.42Q0 44 0 40.75L0 24.75Q0 21.45 1.35 19.05Q2.70 16.65 5.18 15.32Q7.65 14 11 14Q14.40 14 16.85 15.32Q19.30 16.65 20.65 19.05Q22 21.45 22 24.75L22 40.75Q22 44 20.65 46.42Q19.30 48.85 16.83 50.17Q14.35 51.50 11 51.50M11 47.65Q14 47.65 15.83 45.73Q17.65 43.80 17.65 40.75L17.65 24.75Q17.65 21.70 15.83 19.77Q14 17.85 11 17.85Q8 17.85 6.18 19.77Q4.35 21.70 4.35 24.75L4.35 40.75Q4.35 43.80 6.18 45.73Q8 47.65 11 47.65M11 35.70Q9.65 35.70 8.83 34.85Q8 34 8 32.60Q8 31.25 8.83 30.42Q9.65 29.60 11 29.60Q12.35 29.60 13.18 30.42Q14 31.25 14 32.60Q14 34 13.18 34.85Q12.35 35.70 11 35.70Z"/></g></g></svg>