<svg xmlns="http://www.w3.org/2000/svg" viewBox="0 14.5 21.5 37" data-asc="1.02" width="21.5" height="37"><defs/><g fill="#000000"><g transform="translate(0, 0)"><path d="M10.65 51.50Q6.20 51.50 3.35 49.20Q0.50 46.90 0 43L4.50 43Q4.75 45.15 6.35 46.33Q7.95 47.50 10.70 47.50Q13.85 47.50 15.43 45.80Q17 44.10 17 41L17 37.45Q17 34.35 15.43 32.65Q13.85 30.95 10.75 30.95Q8.80 30.95 7.35 31.97Q5.90 33 5.25 34.70L0.75 34.70L1 14.50L20.20 14.50L20.20 18.60L5.35 18.60L5.20 30.75L6.60 30.75L5.20 32.05Q5.20 29.70 7.08 28.35Q8.95 27 12.10 27Q16.55 26.95 19.03 29.72Q21.50 32.50 21.50 37.45L21.50 41Q21.50 45.85 18.65 48.67Q15.80 51.50 10.65 51.50Z"/></g><g transform="translate(0, 65)"><path d=""/></g></g></svg>